Coordinates
version=1
nRows=5
nColumns=40
inDegrees=yes

Units are S.I. units (second, meters, Newtons, ...)
Angles are in degrees.

endheader
time	pelvis_tilt	pelvis_list	pelvis_rotation	pelvis_tx	pelvis_ty	pelvis_tz	hip_flexion_r	hip_adduction_r	hip_rotation_r	knee_angle_r	knee_angle_r_beta	ankle_angle_r	subtalar_angle_r	mtp_angle_r	hip_flexion_l	hip_adduction_l	hip_rotation_l	knee_angle_l	knee_angle_l_beta	ankle_angle_l	subtalar_angle_l	mtp_angle_l	lumbar_extension	lumbar_bending	lumbar_rotation	arm_flex_r	arm_add_r	arm_rot_r	elbow_flex_r	pro_sup_r	wrist_flex_r	wrist_dev_r	arm_flex_l	arm_add_l	arm_rot_l	elbow_flex_l	pro_sup_l	wrist_flex_l	wrist_dev_l
     41.54000000	     -0.60797094	     -4.03868165	      2.33613940	      1.08322506	      0.93509795	      0.49710573	      7.61150194	      2.60936924	    -14.07247893	     16.59466985	     16.59466985	     11.83286327	      1.42584026	     -4.13066356	     27.37104212	    -13.77550644	     -0.61360266	     57.40089613	     57.40089613	      8.73098641	    -17.93568684	     10.79585738	    -10.51554193	      6.35864983	      1.12707689	     18.23284898	    -20.39459220	     -3.07359397	     75.62728923	     37.17803185	      0.00000000	      0.00000000	      5.58798281	     -8.44417085	    -13.45879199	     27.01818759	     38.63104591	      0.00000000	      0.00000000
     41.55307143	     -0.79735391	     -4.00989869	      2.71014578	      1.08178243	      0.93524006	      0.49747587	      7.17720452	      2.68047064	    -14.39923493	     15.95466257	     15.95466257	     11.87783313	      1.66516782	     -4.17511398	     28.11662755	    -13.73445694	     -0.76383122	     54.65096792	     54.65096792	      9.00410952	    -18.12918169	     10.84485450	    -10.43066195	      6.35270301	      1.12605885	     19.83604488	    -20.48891478	     -3.27771448	     77.36394099	     37.27093861	      0.00000000	      0.00000000	      4.18276369	     -8.27985885	    -13.10251794	     26.39326449	     38.69726214	      0.00000000	      0.00000000
     41.56614286	     -0.98749266	     -3.99003580	      3.06177495	      1.08030531	      0.93529882	      0.49779458	      6.76364613	      2.76718422	    -14.69142085	     15.33096220	     15.33096220	     11.90951164	      1.85404719	     -4.30349999	     28.68315006	    -13.65426240	     -0.95813569	     51.62021084	     51.62021084	      9.18284947	    -18.22681793	     10.85440952	    -10.41068901	      6.35871960	      1.21219473	     21.34856525	    -20.72480077	     -3.39750944	     79.40836305	     37.37373348	      0.00000000	      0.00000000	      2.74285632	     -8.11019466	    -12.75293468	     26.08162466	     38.78115799	      0.00000000	      0.00000000
     41.57921429	     -1.17516114	     -3.96807646	      3.39140491	      1.07892224	      0.93529247	      0.49803947	      6.35932728	      2.84012925	    -14.97454369	     14.73636279	     14.73636279	     11.91024399	      2.03563310	     -4.51469285	     29.08579843	    -13.50849839	     -1.14452174	     48.38249892	     48.38249892	      9.27726548	    -18.25154969	     10.89748154	    -10.37085493	      6.40503592	      1.37222837	     22.80337674	    -21.04598171	     -3.51133810	     81.52522793	     37.49840083	      0.00000000	      0.00000000	      1.29842038	     -7.93564650	    -12.36743013	     25.98502824	     38.87881237	      0.00000000	      0.00000000
     41.59228571	     -1.46584536	     -3.90932719	      3.65957275	      1.07743272	      0.93506314	      0.49814928	      6.19845313	      2.84463803	    -15.11164748	     14.36742339	     14.36742339	     12.00507868	      2.03385499	     -4.57866937	     29.46835486	    -13.25551918	     -1.35472647	     45.01609742	     45.01609742	      9.46880018	    -18.11183578	     11.26502674	    -10.17649013	      6.34237088	      1.74666343	     24.35430876	    -21.48100105	     -3.80797389	     82.61786605	     37.52456563	      0.00000000	      0.00000000	      0.11775732	     -7.67713198	    -12.26767678	     25.66629147	     38.89317977	      0.00000000	      0.00000000
